<svg xmlns="http://www.w3.org/2000/svg" viewBox="0 0 814 1000">
  <path fill="#000000" d="M788.1 340.9c-5.8 4.5-108.2 62.2-108.2 190.5 0 148.4 130.3 200.9 134.2 202.2-.6 3.2-20.7 71.9-68.7 141.9-42.8 61.6-87.5 123.1-155.5 123.1s-85.5-39.5-164-39.5c-76 0-103.7 40.8-165.9 40.8s-105-57.8-155.5-127.4C46 790.7 0 663 0 541.8c0-207.5 135.4-317.3 269-317.3 70.1 0 128.4 46.4 172.5 46.4 42.8 0 109.6-49 190.5-49 30.4 0 108.2 2.6 168.6 71.9zm-56.4-190.5c-20.1 23.8-53.9 42.2-87 42.2-3.9 0-7.7-.3-11.6-1 .3-3.9.6-8.4.6-12.3 0-22.8-9.7-47.3-27.4-66.7-20.7-22.5-54.5-39.5-86.3-39.5-3.6 0-7.1.3-10.7.6.3-4.5.6-9 .6-13.3 0-22.2 10-46 28.4-63.7 21.3-20.4 57.1-35.4 88.2-35.4 3.6 0 7.1.3 10.7.6-.3 4.8-.6 9.7-.6 14.2 0 22.8 9.4 46.7 26.1 65.4 19.4 21.9 52.6 38.2 85.2 39.5-.3 3.6-.6 7.4-.6 11.3 0 8.1.6 16.5 1.9 24.9-.3-.3-.3-.3-.6-.3z"/>
</svg>
