<svg width="48" height="48" viewBox="0 0 48 48" fill="none" xmlns="http://www.w3.org/2000/svg">
<rect width="48" height="48" rx="12" fill="black"/>
<path d="M12.3333 24C12.3333 25.3222 12.6639 26.5329 13.325 27.6319C13.9861 28.7309 14.8708 29.5716 15.9792 30.1542C16.2514 30.3097 16.4509 30.5334 16.5777 30.825C16.7044 31.1167 16.7091 31.4084 16.5917 31.7C16.475 32.0111 16.2708 32.2347 15.9792 32.3709C15.6875 32.507 15.4056 32.4972 15.1333 32.3417C13.6167 31.5639 12.3819 30.4412 11.4292 28.9735C10.4764 27.5059 10 25.848 10 24C10 22.1722 10.462 20.5292 11.386 19.0709C12.31 17.6125 13.5202 16.4945 15.0167 15.7167C15.2889 15.5611 15.5759 15.5464 15.8777 15.6724C16.1794 15.7984 16.398 16.0173 16.5333 16.3292C16.6694 16.6014 16.6792 16.8834 16.5625 17.175C16.4458 17.4667 16.2514 17.6903 15.9792 17.8459C14.8708 18.4292 13.9861 19.2704 13.325 20.3694C12.6639 21.4684 12.3333 22.6786 12.3333 24ZM26.3333 33.3334C23.7472 33.3334 21.5449 32.4245 19.7265 30.6069C17.9081 28.7892 16.9992 26.5869 17 24C17.0008 21.4131 17.91 19.2109 19.7277 17.3932C21.5453 15.5755 23.7472 14.6667 26.3333 14.6667C27.4222 14.6667 28.4528 14.8417 29.425 15.1917C30.3972 15.5417 31.2819 16.0278 32.0792 16.65C32.3319 16.8445 32.4583 17.0972 32.4583 17.4084C32.4583 17.7195 32.3417 17.9917 32.1083 18.225C31.8944 18.4389 31.6269 18.5556 31.3057 18.575C30.9844 18.5945 30.6881 18.507 30.4167 18.3125C29.8333 17.8847 29.1963 17.5592 28.5057 17.336C27.815 17.1128 27.0909 17.0008 26.3333 17C24.3889 17 22.7361 17.6806 21.375 19.0417C20.0139 20.4028 19.3333 22.0556 19.3333 24C19.3333 25.9445 20.0139 27.5972 21.375 28.9584C22.7361 30.3195 24.3889 31 26.3333 31C27.0917 31 27.8162 30.888 28.5068 30.664C29.1975 30.44 29.8341 30.1145 30.4167 29.6875C30.6889 29.4931 30.9856 29.4056 31.3068 29.425C31.6281 29.4445 31.8952 29.5611 32.1083 29.775C32.3417 30.0084 32.4583 30.2806 32.4583 30.5917C32.4583 30.9028 32.3319 31.1556 32.0792 31.35C31.2819 31.9722 30.3972 32.4584 29.425 32.8084C28.4528 33.1584 27.4222 33.3334 26.3333 33.3334ZM33.5667 25.1667H26.3333C26.0028 25.1667 25.7259 25.0547 25.5027 24.8307C25.2794 24.6067 25.1674 24.3298 25.1667 24C25.1659 23.6702 25.2779 23.3934 25.5027 23.1694C25.7274 22.9454 26.0043 22.8334 26.3333 22.8334H33.5667L32.5167 21.7834C32.3028 21.5695 32.1958 21.2972 32.1958 20.9667C32.1958 20.6361 32.3028 20.3639 32.5167 20.15C32.7306 19.9361 33.0028 19.8292 33.3333 19.8292C33.6639 19.8292 33.9361 19.9361 34.15 20.15L37.1833 23.1834C37.4167 23.4167 37.5333 23.6889 37.5333 24C37.5333 24.3111 37.4167 24.5834 37.1833 24.8167L34.15 27.85C33.9361 28.0639 33.6639 28.1709 33.3333 28.1709C33.0028 28.1709 32.7306 28.0639 32.5167 27.85C32.3028 27.6361 32.1958 27.3639 32.1958 27.0334C32.1958 26.7028 32.3028 26.4306 32.5167 26.2167L33.5667 25.1667Z" fill="white"/>
</svg>
